<svg width="1391" height="469" viewBox="0 0 1391 469" fill="none" xmlns="http://www.w3.org/2000/svg">
<mask id="path-1-outside-1_227_1480" maskUnits="userSpaceOnUse" x="337" y="100" width="611" height="214" fill="black">
<rect fill="white" x="337" y="100" width="611" height="214"/>
<path d="M407.674 311.1C399.674 311.1 391.574 310.2 383.374 308.4C375.374 306.8 367.974 304.4 361.174 301.2C354.574 298 349.274 294.2 345.274 289.8C341.274 285.2 339.274 280.1 339.274 274.5V242.4H344.674C348.074 262.6 354.674 277.1 364.474 285.9C374.474 294.7 387.974 299.1 404.974 299.1C411.774 299.1 418.174 298 424.174 295.8C430.174 293.4 434.974 289.9 438.574 285.3C442.374 280.7 444.274 275.1 444.274 268.5C444.274 259.7 441.474 252.2 435.874 246C430.474 239.8 422.274 233.5 411.274 227.1L374.374 205.2C361.574 197.6 352.474 189.9 347.074 182.1C341.874 174.3 339.274 164.8 339.274 153.6C339.274 138.2 344.574 125.9 355.174 116.7C365.974 107.3 380.074 102.6 397.474 102.6C404.874 102.6 412.374 103.4 419.974 105C427.574 106.6 434.574 109 440.974 112.2C447.374 115.2 452.474 118.9 456.274 123.3C460.274 127.7 462.274 132.8 462.274 138.6V170.7H456.874C453.474 150.5 446.974 136.1 437.374 127.5C427.774 118.9 414.474 114.6 397.474 114.6C391.674 114.6 386.074 115.9 380.674 118.5C375.274 120.9 370.874 124.4 367.474 129C364.274 133.4 362.674 138.7 362.674 144.9C362.674 153.5 365.474 160.6 371.074 166.2C376.674 171.8 384.974 177.8 395.974 184.2L432.874 206.1C445.674 213.7 455.074 221.1 461.074 228.3C467.074 235.3 470.074 244.4 470.074 255.6C470.074 272.4 464.474 285.9 453.274 296.1C442.074 306.1 426.874 311.1 407.674 311.1ZM538.235 309C534.035 309 529.435 308.3 524.435 306.9C519.635 305.7 514.935 303.5 510.335 300.3C505.735 297.1 501.935 292.8 498.935 287.4C496.135 282 494.735 275.2 494.735 267C494.735 256 498.235 247.5 505.235 241.5C512.435 235.5 521.835 231.3 533.435 228.9C545.235 226.3 557.835 225 571.235 225H580.235C580.235 211 578.835 200.4 576.035 193.2C573.235 185.8 569.435 180.8 564.635 178.2C560.035 175.4 554.735 174 548.735 174C540.335 174 533.235 175.8 527.435 179.4C521.835 183 517.935 189.7 515.735 199.5H502.235C502.235 194.3 502.535 189.5 503.135 185.1C503.735 180.5 505.935 176.3 509.735 172.5C513.535 168.7 519.735 166 528.335 164.4C536.935 162.8 545.735 162 554.735 162C561.535 162 568.035 162.8 574.235 164.4C580.635 166 586.235 169 591.035 173.4C596.035 177.6 599.935 183.9 602.735 192.3C605.735 200.5 607.235 211.4 607.235 225V306H592.235L581.735 292.5H580.235C577.235 296.3 572.335 300 565.535 303.6C558.735 307.2 549.635 309 538.235 309ZM551.735 295.5C559.135 295.5 564.935 293.7 569.135 290.1C573.535 286.3 577.235 282.1 580.235 277.5V237H571.235C556.235 237 544.435 239.8 535.835 245.4C527.435 250.8 523.235 258 523.235 267C523.235 276.8 526.135 284 531.935 288.6C537.735 293.2 544.335 295.5 551.735 295.5ZM650.269 306V144C650.269 135 648.969 127.8 646.369 122.4C643.969 116.8 638.269 114 629.269 114H623.269V108H650.269C657.269 108 662.669 108.9 666.469 110.7C670.469 112.5 673.269 116 674.869 121.2C676.469 126.4 677.269 134 677.269 144V306H650.269ZM755.325 309C751.125 309 746.525 308.3 741.525 306.9C736.725 305.7 732.025 303.5 727.425 300.3C722.825 297.1 719.025 292.8 716.025 287.4C713.225 282 711.825 275.2 711.825 267C711.825 256 715.325 247.5 722.325 241.5C729.525 235.5 738.925 231.3 750.525 228.9C762.325 226.3 774.925 225 788.325 225H797.325C797.325 211 795.925 200.4 793.125 193.2C790.325 185.8 786.525 180.8 781.725 178.2C777.125 175.4 771.825 174 765.825 174C757.425 174 750.325 175.8 744.525 179.4C738.925 183 735.025 189.7 732.825 199.5H719.325C719.325 194.3 719.625 189.5 720.225 185.1C720.825 180.5 723.025 176.3 726.825 172.5C730.625 168.7 736.825 166 745.425 164.4C754.025 162.8 762.825 162 771.825 162C778.625 162 785.125 162.8 791.325 164.4C797.725 166 803.325 169 808.125 173.4C813.125 177.6 817.025 183.9 819.825 192.3C822.825 200.5 824.325 211.4 824.325 225V306H809.325L798.825 292.5H797.325C794.325 296.3 789.425 300 782.625 303.6C775.825 307.2 766.725 309 755.325 309ZM768.825 295.5C776.225 295.5 782.025 293.7 786.225 290.1C790.625 286.3 794.325 282.1 797.325 277.5V237H788.325C773.325 237 761.525 239.8 752.925 245.4C744.525 250.8 740.325 258 740.325 267C740.325 276.8 743.225 284 749.025 288.6C754.825 293.2 761.425 295.5 768.825 295.5ZM907.859 309C897.259 309 888.559 305.9 881.759 299.7C875.159 293.5 871.859 283.6 871.859 270V177H850.859V165H871.859V138L886.859 120H898.859V165H934.859V177H898.859V270C898.859 279 900.559 285.8 903.959 290.4C907.559 294.8 912.859 297 919.859 297C925.059 297 929.359 296.4 932.759 295.2C936.159 294 939.359 292.6 942.359 291L945.359 297C942.159 299.4 937.759 302 932.159 304.8C926.559 307.6 918.459 309 907.859 309Z"/>
</mask>
<path d="M407.674 311.1C399.674 311.1 391.574 310.2 383.374 308.4C375.374 306.8 367.974 304.4 361.174 301.2C354.574 298 349.274 294.2 345.274 289.8C341.274 285.2 339.274 280.1 339.274 274.5V242.4H344.674C348.074 262.6 354.674 277.1 364.474 285.9C374.474 294.7 387.974 299.1 404.974 299.1C411.774 299.1 418.174 298 424.174 295.8C430.174 293.4 434.974 289.9 438.574 285.3C442.374 280.7 444.274 275.1 444.274 268.5C444.274 259.7 441.474 252.2 435.874 246C430.474 239.8 422.274 233.5 411.274 227.1L374.374 205.2C361.574 197.6 352.474 189.9 347.074 182.1C341.874 174.3 339.274 164.8 339.274 153.6C339.274 138.2 344.574 125.9 355.174 116.7C365.974 107.3 380.074 102.6 397.474 102.6C404.874 102.6 412.374 103.4 419.974 105C427.574 106.6 434.574 109 440.974 112.2C447.374 115.2 452.474 118.9 456.274 123.3C460.274 127.7 462.274 132.8 462.274 138.6V170.7H456.874C453.474 150.5 446.974 136.1 437.374 127.5C427.774 118.9 414.474 114.6 397.474 114.6C391.674 114.6 386.074 115.9 380.674 118.5C375.274 120.9 370.874 124.4 367.474 129C364.274 133.4 362.674 138.7 362.674 144.9C362.674 153.5 365.474 160.6 371.074 166.2C376.674 171.8 384.974 177.8 395.974 184.2L432.874 206.1C445.674 213.7 455.074 221.1 461.074 228.3C467.074 235.3 470.074 244.4 470.074 255.6C470.074 272.4 464.474 285.9 453.274 296.1C442.074 306.1 426.874 311.1 407.674 311.1ZM538.235 309C534.035 309 529.435 308.3 524.435 306.9C519.635 305.7 514.935 303.5 510.335 300.3C505.735 297.1 501.935 292.8 498.935 287.4C496.135 282 494.735 275.2 494.735 267C494.735 256 498.235 247.5 505.235 241.5C512.435 235.5 521.835 231.3 533.435 228.9C545.235 226.3 557.835 225 571.235 225H580.235C580.235 211 578.835 200.4 576.035 193.2C573.235 185.8 569.435 180.8 564.635 178.2C560.035 175.4 554.735 174 548.735 174C540.335 174 533.235 175.8 527.435 179.4C521.835 183 517.935 189.7 515.735 199.5H502.235C502.235 194.3 502.535 189.5 503.135 185.1C503.735 180.5 505.935 176.3 509.735 172.5C513.535 168.7 519.735 166 528.335 164.4C536.935 162.8 545.735 162 554.735 162C561.535 162 568.035 162.8 574.235 164.4C580.635 166 586.235 169 591.035 173.4C596.035 177.6 599.935 183.9 602.735 192.3C605.735 200.5 607.235 211.4 607.235 225V306H592.235L581.735 292.5H580.235C577.235 296.3 572.335 300 565.535 303.6C558.735 307.2 549.635 309 538.235 309ZM551.735 295.5C559.135 295.5 564.935 293.7 569.135 290.1C573.535 286.3 577.235 282.1 580.235 277.5V237H571.235C556.235 237 544.435 239.8 535.835 245.4C527.435 250.8 523.235 258 523.235 267C523.235 276.8 526.135 284 531.935 288.6C537.735 293.2 544.335 295.5 551.735 295.5ZM650.269 306V144C650.269 135 648.969 127.8 646.369 122.4C643.969 116.8 638.269 114 629.269 114H623.269V108H650.269C657.269 108 662.669 108.9 666.469 110.7C670.469 112.5 673.269 116 674.869 121.2C676.469 126.4 677.269 134 677.269 144V306H650.269ZM755.325 309C751.125 309 746.525 308.3 741.525 306.9C736.725 305.7 732.025 303.5 727.425 300.3C722.825 297.1 719.025 292.8 716.025 287.4C713.225 282 711.825 275.2 711.825 267C711.825 256 715.325 247.5 722.325 241.5C729.525 235.5 738.925 231.3 750.525 228.9C762.325 226.3 774.925 225 788.325 225H797.325C797.325 211 795.925 200.4 793.125 193.2C790.325 185.8 786.525 180.8 781.725 178.2C777.125 175.4 771.825 174 765.825 174C757.425 174 750.325 175.8 744.525 179.4C738.925 183 735.025 189.7 732.825 199.5H719.325C719.325 194.3 719.625 189.5 720.225 185.1C720.825 180.5 723.025 176.3 726.825 172.5C730.625 168.7 736.825 166 745.425 164.4C754.025 162.8 762.825 162 771.825 162C778.625 162 785.125 162.8 791.325 164.4C797.725 166 803.325 169 808.125 173.4C813.125 177.6 817.025 183.9 819.825 192.3C822.825 200.5 824.325 211.4 824.325 225V306H809.325L798.825 292.5H797.325C794.325 296.3 789.425 300 782.625 303.6C775.825 307.2 766.725 309 755.325 309ZM768.825 295.5C776.225 295.5 782.025 293.7 786.225 290.1C790.625 286.3 794.325 282.1 797.325 277.5V237H788.325C773.325 237 761.525 239.8 752.925 245.4C744.525 250.8 740.325 258 740.325 267C740.325 276.8 743.225 284 749.025 288.6C754.825 293.2 761.425 295.5 768.825 295.5ZM907.859 309C897.259 309 888.559 305.9 881.759 299.7C875.159 293.5 871.859 283.6 871.859 270V177H850.859V165H871.859V138L886.859 120H898.859V165H934.859V177H898.859V270C898.859 279 900.559 285.8 903.959 290.4C907.559 294.8 912.859 297 919.859 297C925.059 297 929.359 296.4 932.759 295.2C936.159 294 939.359 292.6 942.359 291L945.359 297C942.159 299.4 937.759 302 932.159 304.8C926.559 307.6 918.459 309 907.859 309Z" fill="#254F22"/>
<path d="M383.374 308.4L383.803 306.447L383.785 306.443L383.766 306.439L383.374 308.4ZM361.174 301.2L360.302 303L360.312 303.005L360.323 303.01L361.174 301.2ZM345.274 289.8L343.765 291.112L343.779 291.129L343.794 291.145L345.274 289.8ZM339.274 242.4V240.4H337.274V242.4H339.274ZM344.674 242.4L346.646 242.068L346.366 240.4H344.674V242.4ZM364.474 285.9L363.138 287.388L363.145 287.395L363.153 287.401L364.474 285.9ZM424.174 295.8L424.863 297.678L424.89 297.668L424.917 297.657L424.174 295.8ZM438.574 285.3L437.032 284.026L437.015 284.047L436.999 284.067L438.574 285.3ZM435.874 246L434.366 247.314L434.378 247.327L434.39 247.341L435.874 246ZM411.274 227.1L410.253 228.82L410.261 228.824L410.268 228.829L411.274 227.1ZM374.374 205.2L373.353 206.92L373.353 206.92L374.374 205.2ZM347.074 182.1L345.41 183.209L345.42 183.224L345.43 183.238L347.074 182.1ZM355.174 116.7L356.485 118.21L356.487 118.209L355.174 116.7ZM419.974 105L419.562 106.957V106.957L419.974 105ZM440.974 112.2L440.08 113.989L440.102 114L440.125 114.011L440.974 112.2ZM456.274 123.3L454.761 124.607L454.777 124.626L454.794 124.645L456.274 123.3ZM462.274 170.7V172.7H464.274V170.7H462.274ZM456.874 170.7L454.902 171.032L455.183 172.7H456.874V170.7ZM380.674 118.5L381.486 120.328L381.514 120.315L381.542 120.302L380.674 118.5ZM367.474 129L365.866 127.811L365.861 127.817L365.857 127.824L367.474 129ZM371.074 166.2L372.488 164.786V164.786L371.074 166.2ZM395.974 184.2L396.995 182.48L396.988 182.476L396.98 182.471L395.974 184.2ZM432.874 206.1L433.895 204.38L433.895 204.38L432.874 206.1ZM461.074 228.3L459.538 229.58L459.547 229.591L459.556 229.602L461.074 228.3ZM453.274 296.1L454.606 297.592L454.614 297.585L454.621 297.579L453.274 296.1ZM407.674 311.1V309.1C399.825 309.1 391.869 308.217 383.803 306.447L383.374 308.4L382.945 310.353C391.279 312.183 399.523 313.1 407.674 313.1V311.1ZM383.374 308.4L383.766 306.439C375.912 304.868 368.667 302.516 362.026 299.39L361.174 301.2L360.323 303.01C367.281 306.284 374.837 308.732 382.982 310.361L383.374 308.4ZM361.174 301.2L362.047 299.4C355.624 296.286 350.548 292.627 346.754 288.455L345.274 289.8L343.794 291.145C348.001 295.773 353.524 299.714 360.302 303L361.174 301.2ZM345.274 289.8L346.783 288.488C343.07 284.217 341.274 279.573 341.274 274.5H339.274H337.274C337.274 280.626 339.479 286.183 343.765 291.112L345.274 289.8ZM339.274 274.5H341.274V242.4H339.274H337.274V274.5H339.274ZM339.274 242.4V244.4H344.674V242.4V240.4H339.274V242.4ZM344.674 242.4L342.702 242.732C346.138 263.144 352.859 278.158 363.138 287.388L364.474 285.9L365.81 284.412C356.489 276.042 350.011 262.056 346.646 242.068L344.674 242.4ZM364.474 285.9L363.153 287.401C373.61 296.604 387.626 301.1 404.974 301.1V299.1V297.1C388.322 297.1 375.338 292.796 365.795 284.399L364.474 285.9ZM404.974 299.1V301.1C411.994 301.1 418.628 299.964 424.863 297.678L424.174 295.8L423.486 293.922C417.72 296.036 411.554 297.1 404.974 297.1V299.1ZM424.174 295.8L424.917 297.657C431.209 295.14 436.309 291.439 440.149 286.533L438.574 285.3L436.999 284.067C433.639 288.361 429.14 291.66 423.431 293.943L424.174 295.8ZM438.574 285.3L440.116 286.574C444.244 281.577 446.274 275.512 446.274 268.5H444.274H442.274C442.274 274.688 440.504 279.823 437.032 284.026L438.574 285.3ZM444.274 268.5H446.274C446.274 259.234 443.309 251.248 437.358 244.659L435.874 246L434.39 247.341C439.639 253.152 442.274 260.166 442.274 268.5H444.274ZM435.874 246L437.382 244.686C431.783 238.257 423.377 231.828 412.28 225.371L411.274 227.1L410.268 228.829C421.171 235.172 429.166 241.343 434.366 247.314L435.874 246ZM411.274 227.1L412.295 225.38L375.395 203.48L374.374 205.2L373.353 206.92L410.253 228.82L411.274 227.1ZM374.374 205.2L375.395 203.48C362.717 195.952 353.888 188.429 348.719 180.962L347.074 182.1L345.43 183.238C351.06 191.371 360.432 199.248 373.353 206.92L374.374 205.2ZM347.074 182.1L348.738 180.991C343.797 173.579 341.274 164.483 341.274 153.6H339.274H337.274C337.274 165.117 339.951 175.021 345.41 183.209L347.074 182.1ZM339.274 153.6H341.274C341.274 138.716 346.369 126.991 356.485 118.21L355.174 116.7L353.863 115.19C342.78 124.809 337.274 137.684 337.274 153.6H339.274ZM355.174 116.7L356.487 118.209C366.849 109.19 380.448 104.6 397.474 104.6V102.6V100.6C379.7 100.6 365.099 105.41 353.861 115.191L355.174 116.7ZM397.474 102.6V104.6C404.729 104.6 412.091 105.384 419.562 106.957L419.974 105L420.386 103.043C412.657 101.416 405.019 100.6 397.474 100.6V102.6ZM419.974 105L419.562 106.957C427.009 108.525 433.845 110.872 440.08 113.989L440.974 112.2L441.869 110.411C435.303 107.128 428.139 104.675 420.386 103.043L419.974 105ZM440.974 112.2L440.125 114.011C446.325 116.917 451.18 120.461 454.761 124.607L456.274 123.3L457.788 121.993C453.769 117.339 448.424 113.483 441.823 110.389L440.974 112.2ZM456.274 123.3L454.794 124.645C458.469 128.687 460.274 133.311 460.274 138.6H462.274H464.274C464.274 132.289 462.079 126.713 457.754 121.955L456.274 123.3ZM462.274 138.6H460.274V170.7H462.274H464.274V138.6H462.274ZM462.274 170.7V168.7H456.874V170.7V172.7H462.274V170.7ZM456.874 170.7L458.846 170.368C455.413 149.967 448.795 135.046 438.709 126.01L437.374 127.5L436.04 128.99C445.154 137.154 451.536 151.033 454.902 171.032L456.874 170.7ZM437.374 127.5L438.709 126.01C428.638 116.989 414.806 112.6 397.474 112.6V114.6V116.6C414.142 116.6 426.911 120.811 436.04 128.99L437.374 127.5ZM397.474 114.6V112.6C391.364 112.6 385.468 113.972 379.807 116.698L380.674 118.5L381.542 120.302C386.68 117.828 391.985 116.6 397.474 116.6V114.6ZM380.674 118.5L379.862 116.672C374.157 119.208 369.478 122.924 365.866 127.811L367.474 129L369.083 130.189C372.27 125.876 376.392 122.592 381.486 120.328L380.674 118.5ZM367.474 129L365.857 127.824C362.374 132.612 360.674 138.339 360.674 144.9H362.674H364.674C364.674 139.061 366.174 134.188 369.092 130.176L367.474 129ZM362.674 144.9H360.674C360.674 153.98 363.651 161.605 369.66 167.614L371.074 166.2L372.488 164.786C367.298 159.595 364.674 153.02 364.674 144.9H362.674ZM371.074 166.2L369.66 167.614C375.433 173.387 383.898 179.488 394.968 185.929L395.974 184.2L396.98 182.471C386.051 176.112 377.916 170.213 372.488 164.786L371.074 166.2ZM395.974 184.2L394.953 185.92L431.853 207.82L432.874 206.1L433.895 204.38L396.995 182.48L395.974 184.2ZM432.874 206.1L431.853 207.82C444.559 215.364 453.743 222.627 459.538 229.58L461.074 228.3L462.611 227.02C456.405 219.573 446.79 212.036 433.895 204.38L432.874 206.1ZM461.074 228.3L459.556 229.602C465.182 236.165 468.074 244.771 468.074 255.6H470.074H472.074C472.074 244.029 468.967 234.435 462.593 226.998L461.074 228.3ZM470.074 255.6H468.074C468.074 271.905 462.663 284.844 451.928 294.621L453.274 296.1L454.621 297.579C466.285 286.956 472.074 272.895 472.074 255.6H470.074ZM453.274 296.1L451.942 294.608C441.202 304.198 426.524 309.1 407.674 309.1V311.1V313.1C427.224 313.1 442.947 308.002 454.606 297.592L453.274 296.1ZM524.435 306.9L524.974 304.974L524.947 304.967L524.92 304.96L524.435 306.9ZM510.335 300.3L511.477 298.658V298.658L510.335 300.3ZM498.935 287.4L497.16 288.321L497.173 288.346L497.187 288.371L498.935 287.4ZM505.235 241.5L503.955 239.964L503.944 239.972L503.934 239.981L505.235 241.5ZM533.435 228.9L533.84 230.859L533.853 230.856L533.866 230.853L533.435 228.9ZM580.235 225V227H582.235V225H580.235ZM576.035 193.2L574.165 193.908L574.168 193.916L574.171 193.925L576.035 193.2ZM564.635 178.2L563.595 179.908L563.638 179.935L563.683 179.959L564.635 178.2ZM527.435 179.4L526.38 177.701L526.367 177.709L526.354 177.718L527.435 179.4ZM515.735 199.5V201.5H517.336L517.687 199.938L515.735 199.5ZM502.235 199.5H500.235V201.5H502.235V199.5ZM503.135 185.1L505.117 185.37L505.118 185.359L503.135 185.1ZM528.335 164.4L527.969 162.434V162.434L528.335 164.4ZM574.235 164.4L573.735 166.337L573.743 166.338L573.75 166.34L574.235 164.4ZM591.035 173.4L589.684 174.874L589.716 174.904L589.749 174.931L591.035 173.4ZM602.735 192.3L600.838 192.932L600.847 192.96L600.857 192.987L602.735 192.3ZM607.235 306V308H609.235V306H607.235ZM592.235 306L590.656 307.228L591.257 308H592.235V306ZM581.735 292.5L583.314 291.272L582.713 290.5H581.735V292.5ZM580.235 292.5V290.5H579.266L578.665 291.261L580.235 292.5ZM565.535 303.6L564.599 301.832V301.832L565.535 303.6ZM569.135 290.1L570.437 291.619L570.442 291.614L569.135 290.1ZM580.235 277.5L581.91 278.593L582.235 278.095V277.5H580.235ZM580.235 237H582.235V235H580.235V237ZM535.835 245.4L536.917 247.082L536.927 247.076L535.835 245.4ZM531.935 288.6L533.178 287.033V287.033L531.935 288.6ZM538.235 309V307C534.254 307 529.838 306.336 524.974 304.974L524.435 306.9L523.896 308.826C529.032 310.264 533.816 311 538.235 311V309ZM524.435 306.9L524.92 304.96C520.385 303.826 515.904 301.738 511.477 298.658L510.335 300.3L509.193 301.942C513.966 305.262 518.886 307.574 523.95 308.84L524.435 306.9ZM510.335 300.3L511.477 298.658C507.153 295.65 503.551 291.59 500.683 286.429L498.935 287.4L497.187 288.371C500.32 294.01 504.318 298.55 509.193 301.942L510.335 300.3ZM498.935 287.4L500.711 286.479C498.1 281.445 496.735 274.986 496.735 267H494.735H492.735C492.735 275.414 494.17 282.555 497.16 288.321L498.935 287.4ZM494.735 267H496.735C496.735 256.46 500.066 248.565 506.537 243.019L505.235 241.5L503.934 239.981C496.404 246.435 492.735 255.54 492.735 267H494.735ZM505.235 241.5L506.516 243.036C513.405 237.295 522.479 233.209 533.84 230.859L533.435 228.9L533.03 226.941C521.191 229.391 511.465 233.705 503.955 239.964L505.235 241.5ZM533.435 228.9L533.866 230.853C545.51 228.287 557.964 227 571.235 227V225V223C557.706 223 544.96 224.313 533.005 226.947L533.435 228.9ZM571.235 225V227H580.235V225V223H571.235V225ZM580.235 225H582.235C582.235 210.92 580.835 200.023 577.899 192.475L576.035 193.2L574.171 193.925C576.836 200.777 578.235 211.08 578.235 225H580.235ZM576.035 193.2L577.906 192.492C575.011 184.841 570.965 179.354 565.588 176.441L564.635 178.2L563.683 179.959C567.906 182.246 571.46 186.759 574.165 193.908L576.035 193.2ZM564.635 178.2L565.675 176.492C560.727 173.48 555.059 172 548.735 172V174V176C554.411 176 559.343 177.32 563.595 179.908L564.635 178.2ZM548.735 174V172C540.048 172 532.563 173.863 526.38 177.701L527.435 179.4L528.49 181.099C533.907 177.737 540.622 176 548.735 176V174ZM527.435 179.4L526.354 177.718C520.131 181.718 516.041 189.006 513.784 199.062L515.735 199.5L517.687 199.938C519.829 190.394 523.54 184.282 528.517 181.082L527.435 179.4ZM515.735 199.5V197.5H502.235V199.5V201.5H515.735V199.5ZM502.235 199.5H504.235C504.235 194.376 504.531 189.667 505.117 185.37L503.135 185.1L501.154 184.83C500.539 189.333 500.235 194.224 500.235 199.5H502.235ZM503.135 185.1L505.118 185.359C505.653 181.263 507.61 177.454 511.149 173.914L509.735 172.5L508.321 171.086C504.261 175.146 501.818 179.737 501.152 184.841L503.135 185.1ZM509.735 172.5L511.149 173.914C514.535 170.528 520.271 167.935 528.701 166.366L528.335 164.4L527.969 162.434C519.199 164.065 512.535 166.872 508.321 171.086L509.735 172.5ZM528.335 164.4L528.701 166.366C537.177 164.789 545.854 164 554.735 164V162V160C545.616 160 536.693 160.811 527.969 162.434L528.335 164.4ZM554.735 162V164C561.377 164 567.708 164.781 573.735 166.337L574.235 164.4L574.735 162.463C568.362 160.819 561.693 160 554.735 160V162ZM574.235 164.4L573.75 166.34C579.831 167.861 585.133 170.702 589.684 174.874L591.035 173.4L592.387 171.926C587.338 167.298 581.439 164.139 574.72 162.46L574.235 164.4ZM591.035 173.4L589.749 174.931C594.382 178.824 598.114 184.762 600.838 192.932L602.735 192.3L604.633 191.668C601.756 183.038 597.688 176.376 592.322 171.869L591.035 173.4ZM602.735 192.3L600.857 192.987C603.744 200.88 605.235 211.518 605.235 225H607.235H609.235C609.235 211.281 607.726 200.12 604.613 191.613L602.735 192.3ZM607.235 225H605.235V306H607.235H609.235V225H607.235ZM607.235 306V304H592.235V306V308H607.235V306ZM592.235 306L593.814 304.772L583.314 291.272L581.735 292.5L580.156 293.728L590.656 307.228L592.235 306ZM581.735 292.5V290.5H580.235V292.5V294.5H581.735V292.5ZM580.235 292.5L578.665 291.261C575.909 294.752 571.282 298.294 564.599 301.832L565.535 303.6L566.471 305.368C573.388 301.706 578.561 297.848 581.805 293.739L580.235 292.5ZM565.535 303.6L564.599 301.832C558.193 305.224 549.454 307 538.235 307V309V311C549.816 311 559.277 309.176 566.471 305.368L565.535 303.6ZM551.735 295.5V297.5C559.45 297.5 565.767 295.621 570.437 291.618L569.135 290.1L567.834 288.581C564.103 291.779 558.82 293.5 551.735 293.5V295.5ZM569.135 290.1L570.442 291.614C574.976 287.698 578.802 283.358 581.91 278.593L580.235 277.5L578.56 276.407C575.668 280.842 572.094 284.902 567.828 288.586L569.135 290.1ZM580.235 277.5H582.235V237H580.235H578.235V277.5H580.235ZM580.235 237V235H571.235V237V239H580.235V237ZM571.235 237V235C556.017 235 543.786 237.836 534.744 243.724L535.835 245.4L536.927 247.076C545.084 241.764 556.454 239 571.235 239V237ZM535.835 245.4L534.754 243.718C525.856 249.438 521.235 257.236 521.235 267H523.235H525.235C525.235 258.764 529.015 252.162 536.917 247.082L535.835 245.4ZM523.235 267H521.235C521.235 277.198 524.269 285.073 530.692 290.167L531.935 288.6L533.178 287.033C528.001 282.927 525.235 276.402 525.235 267H523.235ZM531.935 288.6L530.692 290.167C536.846 295.047 543.884 297.5 551.735 297.5V295.5V293.5C544.787 293.5 538.625 291.353 533.178 287.033L531.935 288.6ZM650.269 306H648.269V308H650.269V306ZM646.369 122.4L644.53 123.188L644.548 123.228L644.567 123.268L646.369 122.4ZM623.269 114H621.269V116H623.269V114ZM623.269 108V106H621.269V108H623.269ZM666.469 110.7L665.613 112.507L665.63 112.516L665.648 112.524L666.469 110.7ZM674.869 121.2L676.78 120.612V120.612L674.869 121.2ZM677.269 306V308H679.269V306H677.269ZM650.269 306H652.269V144H650.269H648.269V306H650.269ZM650.269 144H652.269C652.269 134.837 650.95 127.304 648.171 121.532L646.369 122.4L644.567 123.268C646.988 128.296 648.269 135.163 648.269 144H650.269ZM646.369 122.4L648.207 121.612C645.349 114.942 638.628 112 629.269 112V114V116C637.91 116 642.589 118.658 644.53 123.188L646.369 122.4ZM629.269 114V112H623.269V114V116H629.269V114ZM623.269 114H625.269V108H623.269H621.269V114H623.269ZM623.269 108V110H650.269V108V106H623.269V108ZM650.269 108V110C657.145 110 662.201 110.892 665.613 112.507L666.469 110.7L667.325 108.893C663.136 106.908 657.393 106 650.269 106V108ZM666.469 110.7L665.648 112.524C669.001 114.033 671.482 116.995 672.957 121.788L674.869 121.2L676.78 120.612C675.055 115.005 671.936 110.967 667.289 108.876L666.469 110.7ZM674.869 121.2L672.957 121.788C674.469 126.7 675.269 134.062 675.269 144H677.269H679.269C679.269 133.938 678.469 126.1 676.78 120.612L674.869 121.2ZM677.269 144H675.269V306H677.269H679.269V144H677.269ZM677.269 306V304H650.269V306V308H677.269V306ZM741.525 306.9L742.064 304.974L742.037 304.967L742.01 304.96L741.525 306.9ZM727.425 300.3L728.567 298.658V298.658L727.425 300.3ZM716.025 287.4L714.249 288.321L714.263 288.346L714.277 288.371L716.025 287.4ZM722.325 241.5L721.045 239.964L721.034 239.972L721.023 239.981L722.325 241.5ZM750.525 228.9L750.93 230.859L750.943 230.856L750.955 230.853L750.525 228.9ZM797.325 225V227H799.325V225H797.325ZM793.125 193.2L791.254 193.908L791.258 193.916L791.261 193.925L793.125 193.2ZM781.725 178.2L780.685 179.908L780.728 179.935L780.772 179.959L781.725 178.2ZM744.525 179.4L743.47 177.701L743.457 177.709L743.443 177.718L744.525 179.4ZM732.825 199.5V201.5H734.426L734.776 199.938L732.825 199.5ZM719.325 199.5H717.325V201.5H719.325V199.5ZM720.225 185.1L722.207 185.37L722.208 185.359L720.225 185.1ZM745.425 164.4L745.059 162.434H745.059L745.425 164.4ZM791.325 164.4L790.825 166.337L790.833 166.338L790.84 166.34L791.325 164.4ZM808.125 173.4L806.774 174.874L806.805 174.904L806.839 174.931L808.125 173.4ZM819.825 192.3L817.928 192.932L817.937 192.96L817.947 192.987L819.825 192.3ZM824.325 306V308H826.325V306H824.325ZM809.325 306L807.746 307.228L808.347 308H809.325V306ZM798.825 292.5L800.404 291.272L799.803 290.5H798.825V292.5ZM797.325 292.5V290.5H796.356L795.755 291.261L797.325 292.5ZM782.625 303.6L781.689 301.832V301.832L782.625 303.6ZM786.225 290.1L787.527 291.619L787.532 291.614L786.225 290.1ZM797.325 277.5L799 278.593L799.325 278.095V277.5H797.325ZM797.325 237H799.325V235H797.325V237ZM752.925 245.4L754.007 247.082L754.016 247.076L752.925 245.4ZM749.025 288.6L750.268 287.033V287.033L749.025 288.6ZM755.325 309V307C751.344 307 746.928 306.336 742.064 304.974L741.525 306.9L740.986 308.826C746.122 310.264 750.906 311 755.325 311V309ZM741.525 306.9L742.01 304.96C737.474 303.826 732.994 301.738 728.567 298.658L727.425 300.3L726.283 301.942C731.056 305.262 735.976 307.574 741.04 308.84L741.525 306.9ZM727.425 300.3L728.567 298.658C724.242 295.65 720.64 291.59 717.773 286.429L716.025 287.4L714.277 288.371C717.41 294.01 721.408 298.55 726.283 301.942L727.425 300.3ZM716.025 287.4L717.801 286.479C715.19 281.445 713.825 274.986 713.825 267H711.825H709.825C709.825 275.414 711.26 282.555 714.249 288.321L716.025 287.4ZM711.825 267H713.825C713.825 256.46 717.156 248.565 723.627 243.019L722.325 241.5L721.023 239.981C713.494 246.435 709.825 255.54 709.825 267H711.825ZM722.325 241.5L723.605 243.036C730.495 237.295 739.569 233.209 750.93 230.859L750.525 228.9L750.12 226.941C738.281 229.391 728.555 233.705 721.045 239.964L722.325 241.5ZM750.525 228.9L750.955 230.853C762.6 228.287 775.054 227 788.325 227V225V223C774.796 223 762.05 224.313 750.095 226.947L750.525 228.9ZM788.325 225V227H797.325V225V223H788.325V225ZM797.325 225H799.325C799.325 210.92 797.924 200.023 794.989 192.475L793.125 193.2L791.261 193.925C793.926 200.777 795.325 211.08 795.325 225H797.325ZM793.125 193.2L794.996 192.492C792.101 184.841 788.055 179.354 782.678 176.441L781.725 178.2L780.772 179.959C784.995 182.246 788.549 186.759 791.254 193.908L793.125 193.2ZM781.725 178.2L782.765 176.492C777.817 173.48 772.149 172 765.825 172V174V176C771.501 176 776.433 177.32 780.685 179.908L781.725 178.2ZM765.825 174V172C757.138 172 749.653 173.863 743.47 177.701L744.525 179.4L745.58 181.099C750.997 177.737 757.712 176 765.825 176V174ZM744.525 179.4L743.443 177.718C737.221 181.718 733.131 189.006 730.874 199.062L732.825 199.5L734.776 199.938C736.919 190.394 740.629 184.282 745.607 181.082L744.525 179.4ZM732.825 199.5V197.5H719.325V199.5V201.5H732.825V199.5ZM719.325 199.5H721.325C721.325 194.376 721.621 189.667 722.207 185.37L720.225 185.1L718.243 184.83C717.629 189.333 717.325 194.224 717.325 199.5H719.325ZM720.225 185.1L722.208 185.359C722.742 181.263 724.7 177.454 728.239 173.914L726.825 172.5L725.411 171.086C721.35 175.146 718.908 179.737 718.242 184.841L720.225 185.1ZM726.825 172.5L728.239 173.914C731.625 170.528 737.361 167.935 745.791 166.366L745.425 164.4L745.059 162.434C736.289 164.065 729.625 166.872 725.411 171.086L726.825 172.5ZM745.425 164.4L745.791 166.366C754.267 164.789 762.944 164 771.825 164V162V160C762.706 160 753.783 160.811 745.059 162.434L745.425 164.4ZM771.825 162V164C778.467 164 784.798 164.781 790.825 166.337L791.325 164.4L791.825 162.463C785.452 160.819 778.783 160 771.825 160V162ZM791.325 164.4L790.84 166.34C796.921 167.861 802.222 170.702 806.774 174.874L808.125 173.4L809.476 171.926C804.428 167.298 798.529 164.139 791.81 162.46L791.325 164.4ZM808.125 173.4L806.839 174.931C811.472 178.824 815.204 184.762 817.928 192.932L819.825 192.3L821.722 191.668C818.846 183.038 814.778 176.376 809.411 171.869L808.125 173.4ZM819.825 192.3L817.947 192.987C820.834 200.88 822.325 211.518 822.325 225H824.325H826.325C826.325 211.281 824.816 200.12 821.703 191.613L819.825 192.3ZM824.325 225H822.325V306H824.325H826.325V225H824.325ZM824.325 306V304H809.325V306V308H824.325V306ZM809.325 306L810.904 304.772L800.404 291.272L798.825 292.5L797.246 293.728L807.746 307.228L809.325 306ZM798.825 292.5V290.5H797.325V292.5V294.5H798.825V292.5ZM797.325 292.5L795.755 291.261C792.999 294.752 788.372 298.294 781.689 301.832L782.625 303.6L783.561 305.368C790.478 301.706 795.651 297.848 798.895 293.739L797.325 292.5ZM782.625 303.6L781.689 301.832C775.283 305.224 766.544 307 755.325 307V309V311C766.906 311 776.367 309.176 783.561 305.368L782.625 303.6ZM768.825 295.5V297.5C776.54 297.5 782.857 295.621 787.527 291.618L786.225 290.1L784.923 288.581C781.193 291.779 775.91 293.5 768.825 293.5V295.5ZM786.225 290.1L787.532 291.614C792.066 287.698 795.892 283.358 799 278.593L797.325 277.5L795.65 276.407C792.758 280.842 789.184 284.902 784.918 288.586L786.225 290.1ZM797.325 277.5H799.325V237H797.325H795.325V277.5H797.325ZM797.325 237V235H788.325V237V239H797.325V237ZM788.325 237V235C773.107 235 760.876 237.836 751.834 243.724L752.925 245.4L754.016 247.076C762.174 241.764 773.543 239 788.325 239V237ZM752.925 245.4L751.844 243.718C742.945 249.438 738.325 257.236 738.325 267H740.325H742.325C742.325 258.764 746.105 252.162 754.007 247.082L752.925 245.4ZM740.325 267H738.325C738.325 277.198 741.359 285.073 747.782 290.167L749.025 288.6L750.268 287.033C745.091 282.927 742.325 276.402 742.325 267H740.325ZM749.025 288.6L747.782 290.167C753.936 295.047 760.974 297.5 768.825 297.5V295.5V293.5C761.876 293.5 755.714 291.353 750.268 287.033L749.025 288.6ZM881.759 299.7L880.389 301.158L880.4 301.168L880.411 301.178L881.759 299.7ZM871.859 177H873.859V175H871.859V177ZM850.859 177H848.859V179H850.859V177ZM850.859 165V163H848.859V165H850.859ZM871.859 165V167H873.859V165H871.859ZM871.859 138L870.322 136.72L869.859 137.276V138H871.859ZM886.859 120V118H885.922L885.322 118.72L886.859 120ZM898.859 120H900.859V118H898.859V120ZM898.859 165H896.859V167H898.859V165ZM934.859 165H936.859V163H934.859V165ZM934.859 177V179H936.859V177H934.859ZM898.859 177V175H896.859V177H898.859ZM903.959 290.4L902.35 291.589L902.38 291.628L902.411 291.666L903.959 290.4ZM932.759 295.2L932.093 293.314V293.314L932.759 295.2ZM942.359 291L944.147 290.106L943.229 288.269L941.417 289.235L942.359 291ZM945.359 297L946.559 298.6L947.894 297.599L947.147 296.106L945.359 297ZM932.159 304.8L933.053 306.589V306.589L932.159 304.8ZM907.859 309V307C897.676 307 889.482 304.035 883.106 298.222L881.759 299.7L880.411 301.178C887.635 307.765 896.841 311 907.859 311V309ZM881.759 299.7L883.128 298.242C877.095 292.575 873.859 283.324 873.859 270H871.859H869.859C869.859 283.876 873.222 294.425 880.389 301.158L881.759 299.7ZM871.859 270H873.859V177H871.859H869.859V270H871.859ZM871.859 177V175H850.859V177V179H871.859V177ZM850.859 177H852.859V165H850.859H848.859V177H850.859ZM850.859 165V167H871.859V165V163H850.859V165ZM871.859 165H873.859V138H871.859H869.859V165H871.859ZM871.859 138L873.395 139.28L888.395 121.28L886.859 120L885.322 118.72L870.322 136.72L871.859 138ZM886.859 120V122H898.859V120V118H886.859V120ZM898.859 120H896.859V165H898.859H900.859V120H898.859ZM898.859 165V167H934.859V165V163H898.859V165ZM934.859 165H932.859V177H934.859H936.859V165H934.859ZM934.859 177V175H898.859V177V179H934.859V177ZM898.859 177H896.859V270H898.859H900.859V177H898.859ZM898.859 270H896.859C896.859 279.2 898.587 286.498 902.35 291.589L903.959 290.4L905.567 289.211C902.53 285.102 900.859 278.8 900.859 270H898.859ZM903.959 290.4L902.411 291.666C906.477 296.637 912.411 299 919.859 299V297V295C913.306 295 908.64 292.963 905.507 289.134L903.959 290.4ZM919.859 297V299C925.194 299 929.738 298.387 933.424 297.086L932.759 295.2L932.093 293.314C928.979 294.413 924.923 295 919.859 295V297ZM932.759 295.2L933.424 297.086C936.913 295.855 940.206 294.415 943.3 292.765L942.359 291L941.417 289.235C938.511 290.785 935.404 292.145 932.093 293.314L932.759 295.2ZM942.359 291L940.57 291.894L943.57 297.894L945.359 297L947.147 296.106L944.147 290.106L942.359 291ZM945.359 297L944.159 295.4C941.092 297.7 936.81 300.238 931.264 303.011L932.159 304.8L933.053 306.589C938.708 303.762 943.225 301.1 946.559 298.6L945.359 297ZM932.159 304.8L931.264 303.011C926.071 305.608 918.336 307 907.859 307V309V311C918.582 311 927.046 309.592 933.053 306.589L932.159 304.8Z" fill="#254F22" mask="url(#path-1-outside-1_227_1480)"/>
<mask id="path-3-outside-2_227_1480" maskUnits="userSpaceOnUse" x="972" y="156" width="413" height="138" fill="black">
<rect fill="white" x="972" y="156" width="413" height="138"/>
<path d="M1021.43 290V166H1003.43C995.434 166 989.234 167.867 984.834 171.6C980.568 175.2 978.434 181 978.434 189H974.434V174C974.434 171.333 974.901 168.8 975.834 166.4C976.768 163.867 978.434 161.867 980.834 160.4C983.368 158.8 986.901 158 991.434 158H1084.43V166H1039.43V290H1021.43ZM1104.24 290V220C1104.24 214 1103.37 209.2 1101.64 205.6C1100.04 201.867 1096.24 200 1090.24 200H1086.24V196H1104.24C1108.9 196 1112.5 196.6 1115.04 197.8C1117.7 199 1119.57 201.333 1120.64 204.8C1121.7 208.267 1122.24 213.333 1122.24 220V290H1104.24ZM1111.84 184C1108.77 184 1106.1 182.733 1103.84 180.2C1101.7 177.667 1100.64 174.667 1100.64 171.2C1100.64 168.4 1101.44 166.2 1103.04 164.6C1104.77 163 1107.04 162.2 1109.84 162.2C1112.9 162.2 1115.5 163.467 1117.64 166C1119.9 168.533 1121.04 171.533 1121.04 175C1121.04 177.8 1120.17 180 1118.44 181.6C1116.84 183.2 1114.64 184 1111.84 184ZM1153.45 290V220C1153.45 214 1152.59 209.2 1150.85 205.6C1149.25 201.867 1145.45 200 1139.45 200H1135.45V196H1153.45C1158.52 196 1162.32 196.733 1164.85 198.2C1167.52 199.533 1169.39 201.467 1170.45 204H1171.45C1173.99 201.467 1177.45 199.2 1181.85 197.2C1186.25 195.067 1191.45 194 1197.45 194C1200.92 194 1204.12 194.4 1207.05 195.2C1210.12 196 1212.85 197.4 1215.25 199.4C1217.79 201.4 1219.85 204.267 1221.45 208C1224.92 203.467 1229.39 200 1234.85 197.6C1240.32 195.2 1245.85 194 1251.45 194C1256.52 194 1261.12 195 1265.25 197C1269.52 199 1272.92 202.6 1275.45 207.8C1278.12 212.867 1279.45 220.267 1279.45 230V290H1261.45V230C1261.45 220 1260.05 213 1257.25 209C1254.45 205 1250.52 203 1245.45 203C1241.59 203 1237.59 204.4 1233.45 207.2C1229.32 210 1226.32 212.933 1224.45 216C1224.99 217.467 1225.25 219.667 1225.25 222.6C1225.39 225.533 1225.45 228 1225.45 230V290H1207.45V230C1207.45 220 1206.05 213 1203.25 209C1200.45 205 1196.52 203 1191.45 203C1187.45 203 1183.72 204.067 1180.25 206.2C1176.92 208.333 1173.99 210.8 1171.45 213.6V290H1153.45ZM1344.09 292C1334.75 292 1326.95 289.8 1320.69 285.4C1314.55 281 1309.89 275.067 1306.69 267.6C1303.62 260.133 1302.09 251.933 1302.09 243C1302.09 233.933 1303.69 225.733 1306.89 218.4C1310.09 210.933 1314.69 205 1320.69 200.6C1326.69 196.2 1333.82 194 1342.09 194C1351.15 194 1358.62 195.733 1364.49 199.2C1370.49 202.533 1374.89 207.467 1377.69 214C1380.62 220.533 1382.09 228.533 1382.09 238L1381.69 246H1321.09C1321.09 256.933 1323.42 266 1328.09 273.2C1332.89 280.4 1339.55 284 1348.09 284C1354.62 284 1360.02 282.6 1364.29 279.8C1368.69 277 1372.62 273.067 1376.09 268L1380.09 271C1377.15 276.067 1373.82 280.133 1370.09 283.2C1366.49 286.267 1362.49 288.533 1358.09 290C1353.82 291.333 1349.15 292 1344.09 292ZM1321.09 238H1363.09C1363.09 226.4 1361.35 217.533 1357.89 211.4C1354.42 205.133 1349.15 202 1342.09 202C1338.09 202 1334.49 203.6 1331.29 206.8C1328.22 209.867 1325.75 214.133 1323.89 219.6C1322.02 224.933 1321.09 231.067 1321.09 238Z"/>
</mask>
<path d="M1021.43 290V166H1003.43C995.434 166 989.234 167.867 984.834 171.6C980.568 175.2 978.434 181 978.434 189H974.434V174C974.434 171.333 974.901 168.8 975.834 166.4C976.768 163.867 978.434 161.867 980.834 160.4C983.368 158.8 986.901 158 991.434 158H1084.43V166H1039.43V290H1021.43ZM1104.24 290V220C1104.24 214 1103.37 209.2 1101.64 205.6C1100.04 201.867 1096.24 200 1090.24 200H1086.24V196H1104.24C1108.9 196 1112.5 196.6 1115.04 197.8C1117.7 199 1119.57 201.333 1120.64 204.8C1121.7 208.267 1122.24 213.333 1122.24 220V290H1104.24ZM1111.84 184C1108.77 184 1106.1 182.733 1103.84 180.2C1101.7 177.667 1100.64 174.667 1100.64 171.2C1100.64 168.4 1101.44 166.2 1103.04 164.6C1104.77 163 1107.04 162.2 1109.84 162.2C1112.9 162.2 1115.5 163.467 1117.64 166C1119.9 168.533 1121.04 171.533 1121.04 175C1121.04 177.8 1120.17 180 1118.44 181.6C1116.84 183.2 1114.64 184 1111.84 184ZM1153.45 290V220C1153.45 214 1152.59 209.2 1150.85 205.6C1149.25 201.867 1145.45 200 1139.45 200H1135.45V196H1153.45C1158.52 196 1162.32 196.733 1164.85 198.2C1167.52 199.533 1169.39 201.467 1170.45 204H1171.45C1173.99 201.467 1177.45 199.2 1181.85 197.2C1186.25 195.067 1191.45 194 1197.45 194C1200.92 194 1204.12 194.4 1207.05 195.2C1210.12 196 1212.85 197.4 1215.25 199.4C1217.79 201.4 1219.85 204.267 1221.45 208C1224.92 203.467 1229.39 200 1234.85 197.6C1240.32 195.2 1245.85 194 1251.45 194C1256.52 194 1261.12 195 1265.25 197C1269.52 199 1272.92 202.6 1275.45 207.8C1278.12 212.867 1279.45 220.267 1279.45 230V290H1261.45V230C1261.45 220 1260.05 213 1257.25 209C1254.45 205 1250.52 203 1245.45 203C1241.59 203 1237.59 204.4 1233.45 207.2C1229.32 210 1226.32 212.933 1224.45 216C1224.99 217.467 1225.25 219.667 1225.25 222.6C1225.39 225.533 1225.45 228 1225.45 230V290H1207.45V230C1207.45 220 1206.05 213 1203.25 209C1200.45 205 1196.52 203 1191.45 203C1187.45 203 1183.72 204.067 1180.25 206.2C1176.92 208.333 1173.99 210.8 1171.45 213.6V290H1153.45ZM1344.09 292C1334.75 292 1326.95 289.8 1320.69 285.4C1314.55 281 1309.89 275.067 1306.69 267.6C1303.62 260.133 1302.09 251.933 1302.09 243C1302.09 233.933 1303.69 225.733 1306.89 218.4C1310.09 210.933 1314.69 205 1320.69 200.6C1326.69 196.2 1333.82 194 1342.09 194C1351.15 194 1358.62 195.733 1364.49 199.2C1370.49 202.533 1374.89 207.467 1377.69 214C1380.62 220.533 1382.09 228.533 1382.09 238L1381.69 246H1321.09C1321.09 256.933 1323.42 266 1328.09 273.2C1332.89 280.4 1339.55 284 1348.09 284C1354.62 284 1360.02 282.6 1364.29 279.8C1368.69 277 1372.62 273.067 1376.09 268L1380.09 271C1377.15 276.067 1373.82 280.133 1370.09 283.2C1366.49 286.267 1362.49 288.533 1358.09 290C1353.82 291.333 1349.15 292 1344.09 292ZM1321.09 238H1363.09C1363.09 226.4 1361.35 217.533 1357.89 211.4C1354.42 205.133 1349.15 202 1342.09 202C1338.09 202 1334.49 203.6 1331.29 206.8C1328.22 209.867 1325.75 214.133 1323.89 219.6C1322.02 224.933 1321.09 231.067 1321.09 238Z" fill="#254F22"/>
<path d="M1021.43 290H1019.43V292H1021.43V290ZM1021.43 166H1023.43V164H1021.43V166ZM984.834 171.6L986.124 173.129L986.128 173.125L984.834 171.6ZM978.434 189V191H980.434V189H978.434ZM974.434 189H972.434V191H974.434V189ZM975.834 166.4L977.698 167.125L977.705 167.108L977.711 167.091L975.834 166.4ZM980.834 160.4L981.877 162.107L981.89 162.099L981.902 162.091L980.834 160.4ZM1084.43 158H1086.43V156H1084.43V158ZM1084.43 166V168H1086.43V166H1084.43ZM1039.43 166V164H1037.43V166H1039.43ZM1039.43 290V292H1041.43V290H1039.43ZM1021.43 290H1023.43V166H1021.43H1019.43V290H1021.43ZM1021.43 166V164H1003.43V166V168H1021.43V166ZM1003.43 166V164C995.143 164 988.42 165.935 983.54 170.075L984.834 171.6L986.128 173.125C990.049 169.799 995.726 168 1003.43 168V166ZM984.834 171.6L983.545 170.071C978.659 174.194 976.434 180.675 976.434 189H978.434H980.434C980.434 181.325 982.477 176.206 986.124 173.129L984.834 171.6ZM978.434 189V187H974.434V189V191H978.434V189ZM974.434 189H976.434V174H974.434H972.434V189H974.434ZM974.434 174H976.434C976.434 171.572 976.858 169.286 977.698 167.125L975.834 166.4L973.97 165.675C972.944 168.314 972.434 171.094 972.434 174H974.434ZM975.834 166.4L977.711 167.091C978.482 164.999 979.844 163.349 981.877 162.107L980.834 160.4L979.791 158.693C977.025 160.384 975.054 162.734 973.958 165.709L975.834 166.4ZM980.834 160.4L981.902 162.091C983.992 160.771 987.099 160 991.434 160V158V156C986.703 156 982.744 156.829 979.766 158.709L980.834 160.4ZM991.434 158V160H1084.43V158V156H991.434V158ZM1084.43 158H1082.43V166H1084.43H1086.43V158H1084.43ZM1084.43 166V164H1039.43V166V168H1084.43V166ZM1039.43 166H1037.43V290H1039.43H1041.43V166H1039.43ZM1039.43 290V288H1021.43V290V292H1039.43V290ZM1104.24 290H1102.24V292H1104.24V290ZM1101.64 205.6L1099.8 206.388L1099.81 206.428L1099.83 206.468L1101.64 205.6ZM1086.24 200H1084.24V202H1086.24V200ZM1086.24 196V194H1084.24V196H1086.24ZM1115.04 197.8L1114.18 199.607L1114.2 199.616L1114.22 199.624L1115.04 197.8ZM1120.64 204.8L1122.55 204.212V204.212L1120.64 204.8ZM1122.24 290V292H1124.24V290H1122.24ZM1103.84 180.2L1102.31 181.488L1102.33 181.511L1102.35 181.534L1103.84 180.2ZM1103.04 164.6L1101.68 163.13L1101.65 163.158L1101.62 163.186L1103.04 164.6ZM1117.64 166L1116.11 167.288L1116.13 167.311L1116.15 167.334L1117.64 166ZM1118.44 181.6L1117.08 180.13L1117.05 180.158L1117.02 180.186L1118.44 181.6ZM1104.24 290H1106.24V220H1104.24H1102.24V290H1104.24ZM1104.24 220H1106.24C1106.24 213.837 1105.35 208.704 1103.44 204.732L1101.64 205.6L1099.83 206.468C1101.39 209.696 1102.24 214.163 1102.24 220H1104.24ZM1101.64 205.6L1103.47 204.812C1101.42 200.009 1096.59 198 1090.24 198V200V202C1095.88 202 1098.66 203.724 1099.8 206.388L1101.64 205.6ZM1090.24 200V198H1086.24V200V202H1090.24V200ZM1086.24 200H1088.24V196H1086.24H1084.24V200H1086.24ZM1086.24 196V198H1104.24V196V194H1086.24V196ZM1104.24 196V198C1108.78 198 1112.04 198.592 1114.18 199.607L1115.04 197.8L1115.89 195.993C1112.97 194.608 1109.03 194 1104.24 194V196ZM1115.04 197.8L1114.22 199.624C1116.24 200.533 1117.78 202.328 1118.72 205.388L1120.64 204.8L1122.55 204.212C1121.36 200.338 1119.17 197.467 1115.86 195.976L1115.04 197.8ZM1120.64 204.8L1118.72 205.388C1119.7 208.567 1120.24 213.395 1120.24 220H1122.24H1124.24C1124.24 213.271 1123.7 207.966 1122.55 204.212L1120.64 204.8ZM1122.24 220H1120.24V290H1122.24H1124.24V220H1122.24ZM1122.24 290V288H1104.24V290V292H1122.24V290ZM1111.84 184V182C1109.4 182 1107.26 181.027 1105.33 178.866L1103.84 180.2L1102.35 181.534C1104.95 184.44 1108.13 186 1111.84 186V184ZM1103.84 180.2L1105.37 178.912C1103.55 176.757 1102.64 174.219 1102.64 171.2H1100.64H1098.64C1098.64 175.114 1099.85 178.576 1102.31 181.488L1103.84 180.2ZM1100.64 171.2H1102.64C1102.64 168.797 1103.31 167.154 1104.45 166.014L1103.04 164.6L1101.62 163.186C1099.56 165.246 1098.64 168.003 1098.64 171.2H1100.64ZM1103.04 164.6L1104.39 166.07C1105.69 164.873 1107.44 164.2 1109.84 164.2V162.2V160.2C1106.63 160.2 1103.85 161.127 1101.68 163.13L1103.04 164.6ZM1109.84 162.2V164.2C1112.26 164.2 1114.32 165.165 1116.11 167.288L1117.64 166L1119.17 164.712C1116.69 161.768 1113.54 160.2 1109.84 160.2V162.2ZM1117.64 166L1116.15 167.334C1118.08 169.492 1119.04 172.015 1119.04 175H1121.04H1123.04C1123.04 171.052 1121.73 167.574 1119.13 164.666L1117.64 166ZM1121.04 175H1119.04C1119.04 177.355 1118.33 178.98 1117.08 180.13L1118.44 181.6L1119.79 183.07C1122.01 181.02 1123.04 178.245 1123.04 175H1121.04ZM1118.44 181.6L1117.02 180.186C1115.88 181.326 1114.24 182 1111.84 182V184V186C1115.03 186 1117.79 185.074 1119.85 183.014L1118.44 181.6ZM1153.45 290H1151.45V292H1153.45V290ZM1150.85 205.6L1149.02 206.388L1149.03 206.428L1149.05 206.468L1150.85 205.6ZM1135.45 200H1133.45V202H1135.45V200ZM1135.45 196V194H1133.45V196H1135.45ZM1164.85 198.2L1163.85 199.931L1163.91 199.961L1163.96 199.989L1164.85 198.2ZM1170.45 204L1168.61 204.776L1169.13 206H1170.45V204ZM1171.45 204V206H1172.28L1172.87 205.414L1171.45 204ZM1181.85 197.2L1182.68 199.021L1182.7 199.01L1182.73 199L1181.85 197.2ZM1207.05 195.2L1206.53 197.13L1206.54 197.132L1206.55 197.135L1207.05 195.2ZM1215.25 199.4L1213.97 200.936L1213.99 200.953L1214.02 200.97L1215.25 199.4ZM1221.45 208L1219.62 208.788L1220.96 211.933L1223.04 209.215L1221.45 208ZM1234.85 197.6L1235.66 199.431V199.431L1234.85 197.6ZM1265.25 197L1264.38 198.8L1264.39 198.806L1264.41 198.811L1265.25 197ZM1275.45 207.8L1273.66 208.676L1273.67 208.704L1273.68 208.731L1275.45 207.8ZM1279.45 290V292H1281.45V290H1279.45ZM1261.45 290H1259.45V292H1261.45V290ZM1257.25 209L1255.62 210.147V210.147L1257.25 209ZM1233.45 207.2L1232.33 205.544V205.544L1233.45 207.2ZM1224.45 216L1222.75 214.96L1222.25 215.781L1222.58 216.683L1224.45 216ZM1225.25 222.6H1223.25V222.645L1223.26 222.691L1225.25 222.6ZM1225.45 290V292H1227.45V290H1225.45ZM1207.45 290H1205.45V292H1207.45V290ZM1180.25 206.2L1179.21 204.497L1179.19 204.506L1179.18 204.515L1180.25 206.2ZM1171.45 213.6L1169.97 212.258L1169.45 212.829V213.6H1171.45ZM1171.45 290V292H1173.45V290H1171.45ZM1153.45 290H1155.45V220H1153.45H1151.45V290H1153.45ZM1153.45 220H1155.45C1155.45 213.837 1154.57 208.704 1152.66 204.732L1150.85 205.6L1149.05 206.468C1150.61 209.696 1151.45 214.163 1151.45 220H1153.45ZM1150.85 205.6L1152.69 204.812C1150.63 200.009 1145.81 198 1139.45 198V200V202C1145.1 202 1147.87 203.724 1149.02 206.388L1150.85 205.6ZM1139.45 200V198H1135.45V200V202H1139.45V200ZM1135.45 200H1137.45V196H1135.45H1133.45V200H1135.45ZM1135.45 196V198H1153.45V196V194H1135.45V196ZM1153.45 196V198C1158.39 198 1161.77 198.726 1163.85 199.931L1164.85 198.2L1165.86 196.469C1162.87 194.74 1158.65 194 1153.45 194V196ZM1164.85 198.2L1163.96 199.989C1166.24 201.128 1167.75 202.721 1168.61 204.776L1170.45 204L1172.3 203.224C1171.03 200.212 1168.8 197.938 1165.75 196.411L1164.85 198.2ZM1170.45 204V206H1171.45V204V202H1170.45V204ZM1171.45 204L1172.87 205.414C1175.18 203.098 1178.43 200.954 1182.68 199.021L1181.85 197.2L1181.03 195.379C1176.48 197.446 1172.79 199.835 1170.04 202.586L1171.45 204ZM1181.85 197.2L1182.73 199C1186.8 197.025 1191.69 196 1197.45 196V194V192C1191.22 192 1185.71 193.109 1180.98 195.4L1181.85 197.2ZM1197.45 194V196C1200.77 196 1203.79 196.382 1206.53 197.13L1207.05 195.2L1207.58 193.27C1204.45 192.418 1201.07 192 1197.45 192V194ZM1207.05 195.2L1206.55 197.135C1209.34 197.862 1211.8 199.128 1213.97 200.936L1215.25 199.4L1216.54 197.864C1213.91 195.672 1210.91 194.138 1207.56 193.265L1207.05 195.2ZM1215.25 199.4L1214.02 200.97C1216.23 202.716 1218.11 205.283 1219.62 208.788L1221.45 208L1223.29 207.212C1221.59 203.25 1219.35 200.084 1216.49 197.83L1215.25 199.4ZM1221.45 208L1223.04 209.215C1226.3 204.963 1230.49 201.702 1235.66 199.431L1234.85 197.6L1234.05 195.769C1228.29 198.298 1223.55 201.971 1219.87 206.785L1221.45 208ZM1234.85 197.6L1235.66 199.431C1240.89 197.135 1246.15 196 1251.45 196V194V192C1245.56 192 1239.75 193.265 1234.05 195.769L1234.85 197.6ZM1251.45 194V196C1256.25 196 1260.55 196.945 1264.38 198.8L1265.25 197L1266.13 195.2C1261.69 193.055 1256.79 192 1251.45 192V194ZM1265.25 197L1264.41 198.811C1268.17 200.576 1271.28 203.791 1273.66 208.676L1275.45 207.8L1277.25 206.924C1274.57 201.409 1270.87 197.424 1266.1 195.189L1265.25 197ZM1275.45 207.8L1273.68 208.731C1276.13 213.376 1277.45 220.393 1277.45 230H1279.45H1281.45C1281.45 220.14 1280.11 212.358 1277.22 206.868L1275.45 207.8ZM1279.45 230H1277.45V290H1279.45H1281.45V230H1279.45ZM1279.45 290V288H1261.45V290V292H1279.45V290ZM1261.45 290H1263.45V230H1261.45H1259.45V290H1261.45ZM1261.45 230H1263.45C1263.45 219.943 1262.07 212.394 1258.89 207.853L1257.25 209L1255.62 210.147C1258.04 213.606 1259.45 220.057 1259.45 230H1261.45ZM1257.25 209L1258.89 207.853C1255.7 203.295 1251.14 201 1245.45 201V203V205C1249.9 205 1253.21 206.705 1255.62 210.147L1257.25 209ZM1245.45 203V201C1241.09 201 1236.7 202.585 1232.33 205.544L1233.45 207.2L1234.58 208.856C1238.47 206.215 1242.09 205 1245.45 205V203ZM1233.45 207.2L1232.33 205.544C1228.05 208.446 1224.81 211.572 1222.75 214.96L1224.45 216L1226.16 217.04C1227.83 214.294 1230.59 211.554 1234.58 208.856L1233.45 207.2ZM1224.45 216L1222.58 216.683C1222.99 217.815 1223.25 219.732 1223.25 222.6H1225.25H1227.25C1227.25 219.601 1226.99 217.118 1226.33 215.317L1224.45 216ZM1225.25 222.6L1223.26 222.691C1223.39 225.606 1223.45 228.041 1223.45 230H1225.45H1227.45C1227.45 227.959 1227.39 225.46 1227.25 222.509L1225.25 222.6ZM1225.45 230H1223.45V290H1225.45H1227.45V230H1225.45ZM1225.45 290V288H1207.45V290V292H1225.45V290ZM1207.45 290H1209.45V230H1207.45H1205.45V290H1207.45ZM1207.45 230H1209.45C1209.45 219.943 1208.07 212.394 1204.89 207.853L1203.25 209L1201.62 210.147C1204.04 213.606 1205.45 220.057 1205.45 230H1207.45ZM1203.25 209L1204.89 207.853C1201.7 203.295 1197.14 201 1191.45 201V203V205C1195.9 205 1199.21 206.705 1201.62 210.147L1203.25 209ZM1191.45 203V201C1187.08 201 1182.98 202.173 1179.21 204.497L1180.25 206.2L1181.3 207.903C1184.46 205.96 1187.83 205 1191.45 205V203ZM1180.25 206.2L1179.18 204.515C1175.7 206.74 1172.63 209.32 1169.97 212.258L1171.45 213.6L1172.94 214.942C1175.35 212.28 1178.14 209.927 1181.33 207.885L1180.25 206.2ZM1171.45 213.6H1169.45V290H1171.45H1173.45V213.6H1171.45ZM1171.45 290V288H1153.45V290V292H1171.45V290ZM1320.69 285.4L1319.52 287.025L1319.53 287.031L1319.54 287.037L1320.69 285.4ZM1306.69 267.6L1304.84 268.36L1304.84 268.374L1304.85 268.388L1306.69 267.6ZM1306.89 218.4L1308.72 219.2L1308.72 219.188L1306.89 218.4ZM1320.69 200.6L1321.87 202.213V202.213L1320.69 200.6ZM1364.49 199.2L1363.47 200.922L1363.49 200.935L1363.51 200.948L1364.49 199.2ZM1377.69 214L1375.85 214.788L1375.85 214.804L1375.86 214.819L1377.69 214ZM1382.09 238L1384.08 238.1L1384.09 238.05V238H1382.09ZM1381.69 246V248H1383.59L1383.68 246.1L1381.69 246ZM1321.09 246V244H1319.09V246H1321.09ZM1328.09 273.2L1326.41 274.288L1326.41 274.299L1326.42 274.309L1328.09 273.2ZM1364.29 279.8L1363.21 278.113L1363.2 278.12L1363.19 278.128L1364.29 279.8ZM1376.09 268L1377.29 266.4L1375.61 265.147L1374.44 266.871L1376.09 268ZM1380.09 271L1381.82 272.002L1382.71 270.465L1381.29 269.4L1380.09 271ZM1370.09 283.2L1368.82 281.655L1368.8 281.666L1368.79 281.678L1370.09 283.2ZM1358.09 290L1358.68 291.909L1358.7 291.903L1358.72 291.897L1358.09 290ZM1321.09 238H1319.09V240H1321.09V238ZM1363.09 238V240H1365.09V238H1363.09ZM1357.89 211.4L1356.14 212.368L1356.14 212.376L1356.14 212.384L1357.89 211.4ZM1331.29 206.8L1332.7 208.214V208.214L1331.29 206.8ZM1323.89 219.6L1325.77 220.261L1325.78 220.254L1325.78 220.246L1323.89 219.6ZM1344.09 292V290C1335.07 290 1327.7 287.879 1321.84 283.763L1320.69 285.4L1319.54 287.037C1326.21 291.721 1334.43 294 1344.09 294V292ZM1320.69 285.4L1321.85 283.775C1316.04 279.604 1311.59 273.97 1308.52 266.812L1306.69 267.6L1304.85 268.388C1308.18 276.163 1313.07 282.396 1319.52 287.025L1320.69 285.4ZM1306.69 267.6L1308.54 266.84C1305.58 259.639 1304.09 251.701 1304.09 243H1302.09H1300.09C1300.09 252.166 1301.66 260.628 1304.84 268.36L1306.69 267.6ZM1302.09 243H1304.09C1304.09 234.172 1305.64 226.249 1308.72 219.2L1306.89 218.4L1305.05 217.6C1301.73 225.217 1300.09 233.695 1300.09 243H1302.09ZM1306.89 218.4L1308.72 219.188C1311.8 212.019 1316.18 206.382 1321.87 202.213L1320.69 200.6L1319.5 198.987C1313.19 203.618 1308.38 209.848 1305.05 217.612L1306.89 218.4ZM1320.69 200.6L1321.87 202.213C1327.49 198.092 1334.2 196 1342.09 196V194V192C1333.44 192 1325.88 194.308 1319.5 198.987L1320.69 200.6ZM1342.09 194V196C1350.91 196 1358 197.688 1363.47 200.922L1364.49 199.2L1365.5 197.478C1359.24 193.779 1351.4 192 1342.09 192V194ZM1364.49 199.2L1363.51 200.948C1369.11 204.058 1373.22 208.646 1375.85 214.788L1377.69 214L1379.52 213.212C1376.56 206.287 1371.86 201.008 1365.46 197.452L1364.49 199.2ZM1377.69 214L1375.86 214.819C1378.65 221.026 1380.09 228.729 1380.09 238H1382.09H1384.09C1384.09 228.337 1382.59 220.04 1379.51 213.181L1377.69 214ZM1382.09 238L1380.09 237.9L1379.69 245.9L1381.69 246L1383.68 246.1L1384.08 238.1L1382.09 238ZM1381.69 246V244H1321.09V246V248H1381.69V246ZM1321.09 246H1319.09C1319.09 257.214 1321.48 266.686 1326.41 274.288L1328.09 273.2L1329.76 272.112C1325.36 265.314 1323.09 256.652 1323.09 246H1321.09ZM1328.09 273.2L1326.42 274.309C1331.59 282.056 1338.87 286 1348.09 286V284V282C1340.23 282 1334.19 278.744 1329.75 272.091L1328.09 273.2ZM1348.09 284V286C1354.9 286 1360.71 284.539 1365.38 281.472L1364.29 279.8L1363.19 278.128C1359.33 280.661 1354.34 282 1348.09 282V284ZM1364.29 279.8L1365.36 281.487C1370.02 278.519 1374.14 274.38 1377.74 269.129L1376.09 268L1374.44 266.871C1371.09 271.753 1367.35 275.481 1363.21 278.113L1364.29 279.8ZM1376.09 268L1374.89 269.6L1378.89 272.6L1380.09 271L1381.29 269.4L1377.29 266.4L1376.09 268ZM1380.09 271L1378.36 269.998C1375.52 274.9 1372.33 278.768 1368.82 281.655L1370.09 283.2L1371.36 284.745C1375.31 281.498 1378.79 277.233 1381.82 272.002L1380.09 271ZM1370.09 283.2L1368.79 281.678C1365.38 284.581 1361.61 286.719 1357.45 288.103L1358.09 290L1358.72 291.897C1363.37 290.348 1367.59 287.952 1371.38 284.722L1370.09 283.2ZM1358.09 290L1357.49 288.091C1353.44 289.357 1348.98 290 1344.09 290V292V294C1349.33 294 1354.2 293.31 1358.68 291.909L1358.09 290ZM1321.09 238V240H1363.09V238V236H1321.09V238ZM1363.09 238H1365.09C1365.09 226.254 1363.34 216.985 1359.63 210.416L1357.89 211.4L1356.14 212.384C1359.37 218.082 1361.09 226.546 1361.09 238H1363.09ZM1357.89 211.4L1359.64 210.432C1357.76 207.041 1355.34 204.408 1352.36 202.631C1349.37 200.854 1345.92 200 1342.09 200V202V204C1345.32 204 1348.03 204.713 1350.31 206.069C1352.59 207.426 1354.54 209.492 1356.14 212.368L1357.89 211.4ZM1342.09 202V200C1337.48 200 1333.39 201.864 1329.87 205.386L1331.29 206.8L1332.7 208.214C1335.58 205.336 1338.69 204 1342.09 204V202ZM1331.29 206.8L1329.87 205.386C1326.53 208.728 1323.93 213.29 1321.99 218.954L1323.89 219.6L1325.78 220.246C1327.58 214.977 1329.91 211.005 1332.7 208.214L1331.29 206.8ZM1323.89 219.6L1322 218.939C1320.04 224.527 1319.09 230.891 1319.09 238H1321.09H1323.09C1323.09 231.242 1324 225.34 1325.77 220.261L1323.89 219.6Z" fill="#254F22" mask="url(#path-3-outside-2_227_1480)"/>
<rect y="85" width="300" height="300" rx="150" fill="#254F22"/>
<path d="M235.433 182.208C234.995 180.861 233.83 179.879 232.427 179.675L205.868 175.816L193.99 151.749C193.363 150.479 192.069 149.674 190.652 149.674C189.234 149.674 187.941 150.479 187.313 151.749L175.435 175.816L148.876 179.675C147.474 179.879 146.309 180.861 145.871 182.208C145.433 183.556 145.798 185.036 146.812 186.024L166.034 204.758L161.497 231.209C161.258 232.606 161.832 234.017 162.978 234.85C164.124 235.683 165.643 235.793 166.898 235.134L190.653 222.645L214.408 235.134C214.953 235.42 215.548 235.561 216.14 235.561C216.912 235.561 217.68 235.321 218.328 234.85C219.475 234.018 220.049 232.606 219.809 231.21L215.272 204.758L217.079 202.997C218.551 201.562 218.581 199.205 217.146 197.733C215.711 196.261 213.354 196.23 211.882 197.666L208.674 200.793C207.797 201.648 207.397 202.88 207.604 204.087L211.196 225.034L192.385 215.145C191.3 214.574 190.005 214.574 188.921 215.145L170.11 225.034L173.702 204.087C173.91 202.88 173.509 201.647 172.632 200.793L157.413 185.958L178.444 182.902C179.657 182.726 180.705 181.965 181.247 180.866L190.652 161.807L200.058 180.866C200.6 181.964 201.648 182.726 202.861 182.902L223.892 185.958L221.359 188.427C219.887 189.862 219.857 192.219 221.291 193.691C222.727 195.164 225.084 195.195 226.556 193.759L234.49 186.025C235.506 185.035 235.871 183.556 235.433 182.208Z" fill="white"/>
<path d="M247.747 242.224C246.241 241.576 244.485 241.991 243.428 243.247C229.666 259.602 209.531 268.983 188.186 268.983C148.392 268.983 116.018 236.608 116.018 196.814C116.018 189.196 117.198 181.696 119.526 174.522C120.161 172.567 119.09 170.467 117.135 169.832C115.178 169.197 113.079 170.268 112.445 172.224C109.875 180.14 108.572 188.414 108.572 196.814C108.572 240.713 144.287 276.427 188.185 276.427C207.607 276.427 226.12 269.388 240.529 256.8C230.556 297.859 193.635 327.554 150.31 327.554C99.1047 327.554 57.4453 285.895 57.4453 234.689C57.4453 191.363 87.1359 154.444 128.194 144.472C124.439 148.77 121.157 153.461 118.382 158.503C117.392 160.304 118.048 162.569 119.85 163.56C121.651 164.55 123.914 163.894 124.906 162.092C129.219 154.253 134.887 147.349 141.752 141.572C143.007 140.515 143.423 138.761 142.775 137.253C142.127 135.745 140.571 134.84 138.937 135.024C114.607 137.771 92.1488 149.355 75.7015 167.642C59.1281 186.07 50 209.881 50 234.689C50 290.001 94.9996 335 150.311 335C175.119 335 198.93 325.872 217.358 309.297C235.645 292.85 247.229 270.393 249.976 246.061C250.16 244.431 249.255 242.872 247.747 242.224Z" fill="white"/>
</svg>
